<?xml version="1.0" encoding="iso-8859-1"?>
<!-- Generator: Adobe Illustrator 19.0.0, SVG Export Plug-In . SVG Version: 6.00 Build 0)  -->
<svg version="1.1" id="Layer_1" xmlns="http://www.w3.org/2000/svg" xmlns:xlink="http://www.w3.org/1999/xlink" x="0px" y="0px"
	 viewBox="0 0 512 512" style="enable-background:new 0 0 512 512;" xml:space="preserve">
<path style="fill:#C3C3C7;" d="M319.33,94.792c-10.345,0-18.732-8.387-18.732-18.732V37.463H211.4v38.597
	c0,10.345-8.387,18.732-18.732,18.732s-18.732-8.387-18.732-18.732V18.732C173.937,8.387,182.324,0,192.669,0H319.33
	c10.345,0,18.732,8.387,18.732,18.732v57.329C338.062,86.406,329.675,94.792,319.33,94.792z"/>
<path style="fill:#AAA9AF;" d="M319.33,0h-63.331v37.463h44.599v38.597c0,10.345,8.387,18.732,18.732,18.732
	c10.345,0,18.732-8.387,18.732-18.732V18.732C338.062,8.387,329.675,0,319.33,0z"/>
<path style="fill:#C3C3C7;" d="M398.092,512H113.907c-10.345,0-18.732-8.387-18.732-18.732v-61.366
	c0-10.345,8.387-18.732,18.732-18.732h284.185c10.345,0,18.732,8.387,18.732,18.732v61.366C416.824,503.613,408.437,512,398.092,512
	z"/>
<path style="fill:#AAA9AF;" d="M398.092,413.17H255.999V512h142.092c10.345,0,18.732-8.387,18.732-18.732v-61.366
	C416.824,421.557,408.437,413.17,398.092,413.17z"/>
<path style="fill:#797680;" d="M416.824,450.634H95.175V147.681c0-10.345,8.387-18.732,18.732-18.732h284.185
	c10.345,0,18.732,8.387,18.732,18.732V450.634z"/>
<path style="fill:#56565C;" d="M416.824,147.681c0-10.345-8.387-18.732-18.732-18.732H255.999v321.685h160.824V147.681z"/>
<path style="fill:#C3C3C7;" d="M237.273,128.949v243.083c0,10.345,8.387,18.732,18.732,18.732c10.345,0,18.732-8.387,18.732-18.732
	V128.949H237.273z"/>
<g>
	<path style="fill:#AAA9AF;" d="M255.999,128.949v261.814c0.001,0,0.004,0,0.005,0c10.345,0,18.732-8.387,18.732-18.732V128.949
		H255.999z"/>
	<path style="fill:#AAA9AF;" d="M303.597,128.949v243.083c0,10.345,8.387,18.732,18.732,18.732s18.732-8.387,18.732-18.732V128.949
		H303.597z"/>
</g>
<path style="fill:#C3C3C7;" d="M170.94,128.949v243.083c0,10.345,8.387,18.732,18.732,18.732s18.732-8.387,18.732-18.732V128.949
	H170.94z"/>
<path style="fill:#E0E0E2;" d="M422.329,166.412H89.669c-10.345,0-18.732-8.387-18.732-18.732v-71.62
	c0-10.345,8.387-18.732,18.732-18.732h332.661c10.345,0,18.732,8.387,18.732,18.732v71.62
	C441.061,158.026,432.676,166.412,422.329,166.412z"/>
<path style="fill:#C7C5CA;" d="M422.329,57.329h-166.33v109.083h166.33c10.345,0,18.732-8.387,18.732-18.732v-71.62
	C441.061,65.716,432.676,57.329,422.329,57.329z"/>
<g>
</g>
<g>
</g>
<g>
</g>
<g>
</g>
<g>
</g>
<g>
</g>
<g>
</g>
<g>
</g>
<g>
</g>
<g>
</g>
<g>
</g>
<g>
</g>
<g>
</g>
<g>
</g>
<g>
</g>
</svg>
