<?xml version="1.0" encoding="iso-8859-1"?>
<!-- Generator: Adobe Illustrator 19.0.0, SVG Export Plug-In . SVG Version: 6.00 Build 0)  -->
<svg version="1.1" id="Layer_1" xmlns="http://www.w3.org/2000/svg" xmlns:xlink="http://www.w3.org/1999/xlink" x="0px" y="0px"
	 viewBox="0 0 511.999 511.999" style="enable-background:new 0 0 511.999 511.999;" xml:space="preserve">
<g>
	<path style="fill:#3DABEF;" d="M299.707,101.199c-11.061-8.095-17.223-21.283-17.223-34.993V52.965h-52.966v13.241
		c0,13.709-6.162,26.898-17.223,34.993c-11.379,8.316-18.088,21.557-18.088,35.628v357.517c0,9.754,7.901,17.655,17.655,17.655
		h88.276c9.746,0,17.655-7.901,17.655-17.655V136.827C317.794,122.756,311.085,109.514,299.707,101.199"/>
	<g>
		<polygon style="fill:#318EBC;" points="194.205,282.483 317.791,282.483 317.791,158.897 194.205,158.897 		"/>
		<path style="fill:#318EBC;" d="M255.999,494.345h-17.655c-14.601,0-26.483-11.882-26.483-26.483v-17.655
			c0-4.882,3.946-8.828,8.828-8.828c4.882,0,8.828,3.946,8.828,8.828v17.655c0,4.873,3.955,8.828,8.828,8.828h17.655
			c4.882,0,8.828,3.946,8.828,8.828C264.826,490.399,260.88,494.345,255.999,494.345"/>
	</g>
	<g>
		<path style="fill:#FFFFFF;" d="M264.826,211.862h-17.655c-4.882,0-8.828-3.946-8.828-8.828s3.946-8.828,8.828-8.828h17.655
			c4.882,0,8.828,3.946,8.828,8.828S269.708,211.862,264.826,211.862"/>
		<path style="fill:#FFFFFF;" d="M282.481,247.172h-52.966c-4.882,0-8.828-3.946-8.828-8.828c0-4.882,3.946-8.828,8.828-8.828
			h52.966c4.882,0,8.828,3.946,8.828,8.828C291.309,243.226,287.363,247.172,282.481,247.172"/>
	</g>
	<path style="fill:#318EBC;" d="M291.309,52.966h-70.621c-4.873,0-8.828-3.955-8.828-8.828V8.828c0-4.873,3.955-8.828,8.828-8.828
		h70.621c4.873,0,8.828,3.955,8.828,8.828v35.31C300.137,49.011,296.182,52.966,291.309,52.966"/>
</g>
<g>
</g>
<g>
</g>
<g>
</g>
<g>
</g>
<g>
</g>
<g>
</g>
<g>
</g>
<g>
</g>
<g>
</g>
<g>
</g>
<g>
</g>
<g>
</g>
<g>
</g>
<g>
</g>
<g>
</g>
</svg>
